# xmcd
#
# Track frame offsets:
#	150
#	105442
#	129422
#	157728
#	196461
#
# Disc length: 3107 seconds
#
# Revision: 0
# Processed by: cddbd v1.5PL3 Copyright (c) Steve Scherf et al.
# Submitted via: EasyCDDAExtractor 5.0.4.1
#
DISCID=330c2105
DTITLE=Led Zeppelin - Earl's Court Arena 2405 Evoluzione CD2
DYEAR=1975
DGENRE=Blues
TTITLE0=No Quarter
TTITLE1=Tangerine
TTITLE2=Going To California
TTITLE3=That's The Way
TTITLE4=Bron-yr-aur Stomp
EXTD=segurarte@hotmail.com
EXTT0=
EXTT1=
EXTT2=
EXTT3=
EXTT4=
PLAYORDER=
